:FULLY-SPECIFIED
:FORCE-ALL-JOINTS-BE-3DOF
:DEGREES
408
root 7.15854 13.795 -34.2327 159.266 75.11 153.074
lfemur 18.3778 -2.77428 -10.3037
ltibia 24.1006 0 0
lfoot -23.3256 33.222 0
ltoes -26.4088 0 0
rfemur -66.2576 -16.2757 8.23832
rtibia 79.108 0 0
rfoot -14.0703 13.2869 0
rtoes 10.0616 0 0
lowerback 8.49493 4.90585 -11.7027
upperback -2.54386 5.18123 -1.20576
thorax -8.48158 3.09352 4.38242
lowerneck 0.541976 -11.6594 -11.3431
upperneck 3.17765 -15.8466 9.27932
head 2.49599 -7.9224 4.02132
lclavicle -3.75341e-14 -5.10897e-16 0
lhumerus -70.213 -20.0521 106.459
lradius 100.288 0 0
lwrist 51.1141 0 0
lhand -10.033 42.9104 0
lfingers 7.12502 0 0
lthumb 15.9519 72.2724 0
rclavicle -3.75341e-14 -5.10897e-16 0
rhumerus 49.2928 -3.98275 -59.6453
rradius 19.9304 0 0
rwrist 18.6769 0 0
rhand -21.7708 -33.2107 0
rfingers 7.12502 0 0
rthumb 4.63012 -63.1399 0
409
root 7.16779 13.7915 -34.2408 159.276 75.1352 153.076
lfemur 18.4721 -2.73251 -10.296
ltibia 23.9981 0 0
lfoot -23.337 33.2043 0
ltoes -26.5264 0 0
rfemur -66.2789 -16.3109 8.26175
rtibia 79.1795 0 0
rfoot -14.1348 13.2606 0
rtoes 10.0938 0 0
lowerback 8.46633 4.90076 -11.6999
upperback -2.55312 5.1788 -1.19575
thorax -8.47554 3.09266 4.39387
lowerneck 0.545976 -11.6512 -11.3512
upperneck 3.19203 -15.8363 9.27494
head 2.49889 -7.91753 4.0217
lclavicle -3.8979e-14 -1.5333e-15 0
lhumerus -70.2155 -20.0196 106.459
lradius 100.285 0 0
lwrist 51.1085 0 0
lhand -9.9714 42.9125 0
lfingers 7.12502 0 0
lthumb 16.0112 72.2701 0
rclavicle -3.8979e-14 -1.5333e-15 0
rhumerus 49.2718 -3.92872 -59.6032
rradius 19.9457 0 0
rwrist 18.5727 0 0
rhand -21.7396 -33.1871 0
rfingers 7.12502 0 0
rthumb 4.66017 -63.1158 0
410
root 7.17705 13.7881 -34.249 159.287 75.1605 153.077
lfemur 18.5665 -2.69075 -10.2884
ltibia 23.8956 0 0
lfoot -23.3485 33.1867 0
ltoes -26.6439 0 0
rfemur -66.3001 -16.3461 8.28518
rtibia 79.251 0 0
rfoot -14.1992 13.2344 0
rtoes 10.126 0 0
lowerback 8.43774 4.89567 -11.6971
upperback -2.56237 5.17637 -1.18575
thorax -8.4695 3.09181 4.40533
lowerneck 0.549975 -11.6431 -11.3594
upperneck 3.20642 -15.8261 9.27055
head 2.50178 -7.91267 4.02208
lclavicle -4.0424e-14 -2.55571e-15 0
lhumerus -70.2179 -19.987 106.459
lradius 100.282 0 0
lwrist 51.1029 0 0
lhand -9.90983 42.9145 0
lfingers 7.12502 0 0
lthumb 16.0705 72.2677 0
rclavicle -4.0424e-14 -2.55571e-15 0
rhumerus 49.2509 -3.8747 -59.5611
rradius 19.9609 0 0
rwrist 18.4684 0 0
rhand -21.7085 -33.1635 0
rfingers 7.12502 0 0
rthumb 4.69022 -63.0916 0
411
root 7.1863 13.7847 -34.2571 159.297 75.1858 153.078
lfemur 18.6608 -2.64898 -10.2808
ltibia 23.7931 0 0
lfoot -23.3599 33.1691 0
ltoes -26.7615 0 0
rfemur -66.3214 -16.3813 8.30861
rtibia 79.3225 0 0
rfoot -14.2636 13.2081 0
rtoes 10.1582 0 0
lowerback 8.40914 4.89058 -11.6943
upperback -2.57162 5.17394 -1.17575
thorax -8.46346 3.09095 4.41678
lowerneck 0.553975 -11.6349 -11.3675
upperneck 3.2208 -15.8159 9.26617
head 2.50468 -7.9078 4.02246
lclavicle -4.1869e-14 -3.57812e-15 0
lhumerus -70.2204 -19.9544 106.459
lradius 100.279 0 0
lwrist 51.0973 0 0
lhand -9.84827 42.9166 0
lfingers 7.12502 0 0
lthumb 16.1298 72.2654 0
rclavicle -4.1869e-14 -3.57812e-15 0
rhumerus 49.2299 -3.82067 -59.519
rradius 19.9761 0 0
rwrist 18.3642 0 0
rhand -21.6774 -33.1399 0
rfingers 7.12502 0 0
rthumb 4.72027 -63.0674 0
